<?xml version="1.0" encoding="utf-8"?>
<svg version="1.1" xmlns="http://www.w3.org/2000/svg" xmlns:xlink="http://www.w3.org/1999/xlink" x="0px" y="0px" viewBox="0 0 1000 1000" enable-background="new 0 0 1000 1000" xml:space="preserve">
<metadata> Svg Vector Icons : http://www.onlinewebfonts.com/icon </metadata>
<g><path d="M990,500c0,13.3-3.3,23.3-10,36.7c-50,83.3-120,150-206.7,200c-86.7,50-176.7,76.7-273.3,76.7c-96.7,0-186.7-26.7-273.3-76.7C140,686.7,73.3,620,20,536.7C13.3,523.3,10,510,10,500c0-13.3,3.3-23.3,10-36.7c50-83.3,120-150,206.7-200c86.7-50,176.7-76.7,273.3-76.7c96.7,0,186.7,26.7,273.3,76.7c86.7,50,153.3,116.7,206.7,200C986.7,476.7,990,486.7,990,500z M920,500c-56.7-86.7-123.3-150-206.7-193.3c23.3,36.7,33.3,80,33.3,123.3c0,66.7-23.3,123.3-73.3,173.3C626.7,650,566.7,676.7,500,676.7c-66.7,0-123.3-23.3-173.3-73.3C280,556.7,253.3,496.7,253.3,430c0-43.3,10-83.3,33.3-123.3C203.3,350,133.3,413.3,80,500c50,73.3,110,133.3,183.3,176.7c73.3,43.3,153.3,66.7,236.7,66.7c86.7,0,163.3-23.3,236.7-66.7C810,633.3,870,573.3,920,500z M520,310c6.7-6.7,6.7-10,6.7-20c0-6.7-3.3-13.3-6.7-20c-6.7-6.7-10-6.7-20-6.7c-46.7,0-83.3,16.7-116.7,50c-33.3,33.3-50,70-50,116.7c0,6.7,3.3,13.3,6.7,20c6.7,6.7,10,6.7,20,6.7c6.7,0,13.3-3.3,20-6.7c6.7-6.7,6.7-10,6.7-20c0-30,10-56.7,33.3-80c23.3-23.3,50-33.3,80-33.3C506.7,316.7,513.3,313.3,520,310z"/></g>
</svg>